<svg width="5571" height="1024" viewBox="0 0 5571 1024" fill="none" xmlns="http://www.w3.org/2000/svg">
<line x1="505" y1="146.45" x2="505" y2="372.45" stroke="#86FF84" stroke-width="10"/>
<circle cx="341" cy="465.45" r="20" stroke="#86FF84" stroke-width="10"/>
<line x1="152" y1="386.45" x2="195" y2="386.45" stroke="#86FF84" stroke-width="10"/>
<line x1="468" y1="209.45" x2="500.016" y2="209.45" stroke="#86FF84" stroke-width="10"/>
<line x1="418.209" y1="153.752" x2="443.209" y2="192.752" stroke="#86FF84" stroke-width="10"/>
<path d="M173 490.45C173 501.496 164.046 510.45 153 510.45C141.954 510.45 133 501.496 133 490.45C133 479.405 141.954 470.45 153 470.45C164.046 470.45 173 479.405 173 490.45Z" stroke="#86FF84" stroke-width="10"/>
<path d="M350 523.45L126 523.45" stroke="#86FF84" stroke-width="10"/>
<line x1="271" y1="316.943" x2="185.99" y2="316.943" stroke="#86FF84" stroke-width="10"/>
<line x1="156" y1="471.54" x2="156" y2="382.45" stroke="#86FF84" stroke-width="10"/>
<circle cx="341" cy="206.45" r="20" stroke="#86FF84" stroke-width="10"/>
<line x1="315.971" y1="390.45" x2="350.029" y2="390.45" stroke="#86FF84" stroke-width="10"/>
<line x1="324" y1="350.45" x2="379.06" y2="350.45" stroke="#86FF84" stroke-width="10"/>
<line x1="395" y1="368.45" x2="395" y2="264.45" stroke="#86FF84" stroke-width="10"/>
<circle cx="400" cy="246.45" r="20" stroke="#86FF84" stroke-width="10"/>
<circle cx="459" cy="343.45" r="20" stroke="#86FF84" stroke-width="10"/>
<circle cx="275" cy="357.45" r="20" stroke="#86FF84" stroke-width="10"/>
<path d="M257 407.45C257 418.496 248.046 427.45 237 427.45C225.954 427.45 217 418.496 217 407.45C217 396.405 225.954 387.45 237 387.45C248.046 387.45 257 396.405 257 407.45Z" stroke="#86FF84" stroke-width="10"/>
<line x1="391" y1="321.45" x2="324" y2="321.45" stroke="#86FF84" stroke-width="10"/>
<line x1="321" y1="316.45" x2="321" y2="407.45" stroke="#86FF84" stroke-width="10"/>
<line x1="326" y1="406.45" x2="255" y2="406.45" stroke="#86FF84" stroke-width="10"/>
<line x1="320.683" y1="321.681" x2="251.74" y2="243.817" stroke="#86FF84" stroke-width="10"/>
<line x1="374.5" y1="323.38" x2="374.5" y2="369.52" stroke="#86FF84" stroke-width="10"/>
<line x1="269.5" y1="340.46" x2="269.5" y2="262.45" stroke="#86FF84" stroke-width="10"/>
<line x1="286" y1="518.455" x2="286" y2="410.45" stroke="#86FF84" stroke-width="10"/>
<line x1="291" y1="459.45" x2="324" y2="459.45" stroke="#86FF84" stroke-width="10"/>
<line x1="218.605" y1="418.441" x2="200.645" y2="437.347" stroke="#86FF84" stroke-width="10"/>
<path d="M202.02 503.45V433.89" stroke="#86FF84" stroke-width="10"/>
<line x1="197" y1="498.45" x2="168" y2="498.45" stroke="#86FF84" stroke-width="10"/>
<rect x="150" y="513.45" width="7" height="7" rx="3.5" fill="#86FF84"/>
<rect x="215" y="318.45" width="6" height="79" rx="3" fill="#86FF84"/>
<line x1="206" y1="485.45" x2="283" y2="485.45" stroke="#86FF84" stroke-width="10"/>
<path d="M252.236 361.922L193 386.95" stroke="#86FF84" stroke-width="10"/>
<line x1="328" y1="316.45" x2="328" y2="221.45" stroke="#86FF84" stroke-width="10"/>
<line x1="360.774" y1="217.29" x2="384.773" y2="233.29" stroke="#86FF84" stroke-width="10"/>
<line x1="420" y1="248.45" x2="447" y2="248.45" stroke="#86FF84" stroke-width="10"/>
<line x1="448" y1="243.45" x2="448" y2="327.45" stroke="#86FF84" stroke-width="10"/>
<line x1="452" y1="306.45" x2="505" y2="306.45" stroke="#86FF84" stroke-width="10"/>
<line x1="439" y1="190.45" x2="463" y2="190.45" stroke="#86FF84" stroke-width="10"/>
<line x1="468" y1="301.45" x2="468" y2="149.45" stroke="#86FF84" stroke-width="10"/>
<line x1="494" y1="891.45" x2="494" y2="665.45" stroke="#84F8FF" stroke-width="10"/>
<circle cx="658" cy="572.45" r="20" transform="rotate(-180 658 572.45)" stroke="#84F8FF" stroke-width="10"/>
<line x1="847" y1="651.45" x2="804" y2="651.45" stroke="#84F8FF" stroke-width="10"/>
<line x1="531" y1="828.45" x2="498.984" y2="828.45" stroke="#84F8FF" stroke-width="10"/>
<line x1="580.791" y1="884.149" x2="555.791" y2="845.148" stroke="#84F8FF" stroke-width="10"/>
<path d="M826 547.45C826 536.405 834.954 527.45 846 527.45C857.046 527.45 866 536.405 866 547.45C866 558.496 857.046 567.45 846 567.45C834.954 567.45 826 558.496 826 547.45Z" stroke="#84F8FF" stroke-width="10"/>
<path d="M649 514.45L873 514.45" stroke="#84F8FF" stroke-width="10"/>
<line x1="728" y1="720.958" x2="813.01" y2="720.958" stroke="#84F8FF" stroke-width="10"/>
<line x1="843" y1="566.36" x2="843" y2="655.45" stroke="#84F8FF" stroke-width="10"/>
<circle cx="658" cy="831.45" r="20" transform="rotate(-180 658 831.45)" stroke="#84F8FF" stroke-width="10"/>
<line x1="683.029" y1="647.45" x2="648.971" y2="647.45" stroke="#84F8FF" stroke-width="10"/>
<line x1="675" y1="687.45" x2="619.94" y2="687.45" stroke="#84F8FF" stroke-width="10"/>
<line x1="604" y1="669.45" x2="604" y2="773.45" stroke="#84F8FF" stroke-width="10"/>
<circle cx="599" cy="791.45" r="20" transform="rotate(-180 599 791.45)" stroke="#84F8FF" stroke-width="10"/>
<circle cx="540" cy="694.45" r="20" transform="rotate(-180 540 694.45)" stroke="#84F8FF" stroke-width="10"/>
<circle cx="724" cy="680.45" r="20" transform="rotate(-180 724 680.45)" stroke="#84F8FF" stroke-width="10"/>
<path d="M742 630.45C742 619.405 750.954 610.45 762 610.45C773.046 610.45 782 619.405 782 630.45C782 641.496 773.046 650.45 762 650.45C750.954 650.45 742 641.496 742 630.45Z" stroke="#84F8FF" stroke-width="10"/>
<line x1="608" y1="716.45" x2="675" y2="716.45" stroke="#84F8FF" stroke-width="10"/>
<line x1="678" y1="721.45" x2="678" y2="630.45" stroke="#84F8FF" stroke-width="10"/>
<line x1="673" y1="631.45" x2="744" y2="631.45" stroke="#84F8FF" stroke-width="10"/>
<line x1="678.317" y1="716.219" x2="747.26" y2="794.083" stroke="#84F8FF" stroke-width="10"/>
<line x1="624.5" y1="714.52" x2="624.5" y2="668.38" stroke="#84F8FF" stroke-width="10"/>
<line x1="729.5" y1="697.44" x2="729.5" y2="775.45" stroke="#84F8FF" stroke-width="10"/>
<line x1="713" y1="519.446" x2="713" y2="627.45" stroke="#84F8FF" stroke-width="10"/>
<line x1="708" y1="578.45" x2="675" y2="578.45" stroke="#84F8FF" stroke-width="10"/>
<line x1="780.395" y1="619.46" x2="798.355" y2="600.554" stroke="#84F8FF" stroke-width="10"/>
<path d="M796.98 534.45V604.01" stroke="#84F8FF" stroke-width="10"/>
<line x1="802" y1="539.45" x2="831" y2="539.45" stroke="#84F8FF" stroke-width="10"/>
<line x1="793" y1="552.45" x2="716" y2="552.45" stroke="#84F8FF" stroke-width="10"/>
<path d="M746.764 675.978L806 650.95" stroke="#84F8FF" stroke-width="10"/>
<line x1="671" y1="721.45" x2="671" y2="816.45" stroke="#84F8FF" stroke-width="10"/>
<line x1="638.226" y1="820.61" x2="614.227" y2="804.61" stroke="#84F8FF" stroke-width="10"/>
<line x1="579" y1="789.45" x2="552" y2="789.45" stroke="#84F8FF" stroke-width="10"/>
<line x1="551" y1="794.45" x2="551" y2="710.45" stroke="#84F8FF" stroke-width="10"/>
<line x1="547" y1="731.45" x2="494" y2="731.45" stroke="#84F8FF" stroke-width="10"/>
<line x1="560" y1="847.45" x2="536" y2="847.45" stroke="#84F8FF" stroke-width="10"/>
<line x1="531" y1="736.45" x2="531" y2="888.45" stroke="#84F8FF" stroke-width="10"/>
<circle cx="500" cy="518.45" r="495" stroke="white" stroke-width="10"/>
<circle cx="500" cy="518.45" r="372.5" stroke="white" stroke-width="5"/>
<rect x="350" y="368.45" width="300" height="300" rx="10" fill="white"/>
<rect x="402.5" y="420.95" width="195" height="195" rx="7.5" stroke="black" stroke-width="5"/>
<circle cx="622" cy="401.45" r="10" fill="black"/>
<path d="M415.273 532.317V521.067L468.711 496.38V510.247L430.742 526.536L431.172 525.794V527.591L430.742 526.849L468.711 543.138V557.005L415.273 532.317ZM518.936 474.7L493.154 570.481H480.771L506.553 474.7H518.936ZM584.404 532.317L530.967 557.005V543.138L568.936 526.849L568.506 527.591V525.794L568.936 526.536L530.967 510.247V496.38L584.404 521.067V532.317Z" fill="#262626"/>
<line x1="1114" y1="1024" x2="1114" stroke="white" stroke-width="30"/>
<path d="M1464.5 566.45C1438.83 566.45 1415.17 562.117 1393.5 553.45C1372.17 544.45 1353.5 531.95 1337.5 515.95C1321.83 499.617 1309.67 480.45 1301 458.45C1292.67 436.45 1288.5 412.284 1288.5 385.95C1288.5 360.284 1293 336.617 1302 314.95C1311 292.95 1323.67 273.784 1340 257.45C1356.33 241.117 1375.33 228.45 1397 219.45C1419 210.45 1442.83 205.95 1468.5 205.95C1485.17 205.95 1501.5 208.284 1517.5 212.95C1533.83 217.284 1548.67 223.95 1562 232.95C1575.67 241.617 1587.33 251.784 1597 263.45L1550 315.95C1538.33 303.284 1525.67 293.617 1512 286.95C1498.33 280.284 1483.67 276.95 1468 276.95C1453.67 276.95 1440.17 279.617 1427.5 284.95C1415.17 289.95 1404.33 297.284 1395 306.95C1385.67 316.617 1378.33 328.117 1373 341.45C1367.67 354.784 1365 369.617 1365 385.95C1365 402.617 1367.5 417.784 1372.5 431.45C1377.83 444.784 1385.33 456.284 1395 465.95C1404.67 475.284 1416.17 482.617 1429.5 487.95C1443.17 492.95 1458.17 495.45 1474.5 495.45C1485.17 495.45 1495.33 493.95 1505 490.95C1515 487.95 1524.33 483.784 1533 478.45C1541.67 473.117 1549.33 466.95 1556 459.95L1592.5 518.45C1584.83 527.45 1574.17 535.617 1560.5 542.95C1546.83 550.284 1531.67 556.117 1515 560.45C1498.33 564.45 1481.5 566.45 1464.5 566.45ZM1810.74 566.45C1785.07 566.45 1761.24 561.95 1739.24 552.95C1717.57 543.95 1698.74 531.45 1682.74 515.45C1667.07 499.117 1654.74 479.95 1645.74 457.95C1637.07 435.95 1632.74 411.784 1632.74 385.45C1632.74 359.45 1637.07 335.45 1645.74 313.45C1654.74 291.45 1667.07 272.284 1682.74 255.95C1698.74 239.617 1717.57 226.95 1739.24 217.95C1761.24 208.95 1785.07 204.45 1810.74 204.45C1836.4 204.45 1859.9 208.95 1881.24 217.95C1902.9 226.95 1921.74 239.617 1937.74 255.95C1953.74 272.284 1966.07 291.45 1974.74 313.45C1983.74 335.45 1988.24 359.617 1988.24 385.95C1988.24 411.617 1983.74 435.45 1974.74 457.45C1966.07 479.45 1953.74 498.617 1937.74 514.95C1921.74 531.284 1902.9 543.95 1881.24 552.95C1859.9 561.95 1836.4 566.45 1810.74 566.45ZM1810.74 495.45C1825.4 495.45 1838.9 492.784 1851.24 487.45C1863.57 481.784 1874.24 474.117 1883.24 464.45C1892.57 454.45 1899.74 442.784 1904.74 429.45C1909.74 416.117 1912.24 401.617 1912.24 385.95C1912.24 369.95 1909.74 355.284 1904.74 341.95C1899.74 328.617 1892.57 316.95 1883.24 306.95C1874.24 296.95 1863.57 289.284 1851.24 283.95C1838.9 278.284 1825.4 275.45 1810.74 275.45C1796.07 275.45 1782.4 278.284 1769.74 283.95C1757.4 289.284 1746.57 296.95 1737.24 306.95C1728.24 316.617 1721.24 328.284 1716.24 341.95C1711.24 355.284 1708.74 369.95 1708.74 385.95C1708.74 406.95 1713.07 425.784 1721.74 442.45C1730.74 458.784 1742.9 471.784 1758.24 481.45C1773.57 490.784 1791.07 495.45 1810.74 495.45ZM2056.13 561.45V211.45H2204.63C2225.63 211.45 2244.46 216.45 2261.13 226.45C2277.8 236.117 2290.96 249.45 2300.63 266.45C2310.63 283.117 2315.63 302.117 2315.63 323.45C2315.63 345.117 2310.63 364.784 2300.63 382.45C2290.96 399.784 2277.8 413.617 2261.13 423.95C2244.46 433.95 2225.63 438.95 2204.63 438.95H2131.13V561.45H2056.13ZM2130.13 370.95H2196.63C2204.3 370.95 2211.3 368.95 2217.63 364.95C2223.96 360.95 2229.13 355.45 2233.13 348.45C2237.13 341.45 2239.13 333.45 2239.13 324.45C2239.13 315.45 2237.13 307.617 2233.13 300.95C2229.13 294.284 2223.96 288.95 2217.63 284.95C2211.3 280.95 2204.3 278.95 2196.63 278.95H2130.13V370.95ZM2496.29 566.45C2463.62 566.45 2435.62 560.617 2412.29 548.95C2389.29 536.95 2369.46 519.617 2352.79 496.95L2399.79 443.95C2416.12 466.617 2432.29 482.117 2448.29 490.45C2464.62 498.45 2482.12 502.45 2500.79 502.45C2511.12 502.45 2520.29 500.95 2528.29 497.95C2536.62 494.95 2543.12 490.784 2547.79 485.45C2552.79 480.117 2555.29 473.95 2555.29 466.95C2555.29 461.617 2554.12 456.784 2551.79 452.45C2549.46 447.784 2546.12 443.784 2541.79 440.45C2537.46 436.784 2532.29 433.617 2526.29 430.95C2520.29 427.95 2513.62 425.45 2506.29 423.45C2498.96 421.45 2490.96 419.617 2482.29 417.95C2463.62 413.95 2447.29 408.784 2433.29 402.45C2419.29 396.117 2407.62 388.45 2398.29 379.45C2388.96 370.45 2381.96 360.117 2377.29 348.45C2372.96 336.45 2370.79 323.117 2370.79 308.45C2370.79 287.784 2376.62 269.784 2388.29 254.45C2399.96 238.784 2415.46 226.617 2434.79 217.95C2454.12 208.95 2475.46 204.45 2498.79 204.45C2530.46 204.45 2556.46 209.784 2576.79 220.45C2597.46 231.117 2613.96 246.117 2626.29 265.45L2578.29 312.45C2567.96 298.117 2556.12 287.284 2542.79 279.95C2529.46 272.617 2515.12 268.95 2499.79 268.95C2489.12 268.95 2479.62 270.45 2471.29 273.45C2463.29 276.117 2457.12 280.284 2452.79 285.95C2448.46 291.284 2446.29 297.617 2446.29 304.95C2446.29 310.95 2447.79 316.284 2450.79 320.95C2453.79 325.617 2457.96 329.784 2463.29 333.45C2468.96 336.784 2475.79 339.784 2483.79 342.45C2491.79 345.117 2500.62 347.284 2510.29 348.95C2528.62 352.617 2545.12 357.617 2559.79 363.95C2574.46 369.95 2586.96 377.284 2597.29 385.95C2607.96 394.617 2616.12 404.617 2621.79 415.95C2627.46 427.284 2630.29 439.95 2630.29 453.95C2630.29 477.617 2624.62 497.784 2613.29 514.45C2601.96 531.117 2586.29 543.95 2566.29 552.95C2546.29 561.95 2522.96 566.45 2496.29 566.45Z" fill="white"/>
<path d="M1356.65 823.25C1351.72 823.25 1347.19 822.05 1343.05 819.65C1338.92 817.25 1335.59 813.983 1333.05 809.85C1330.65 805.717 1329.45 801.183 1329.45 796.25C1329.45 791.183 1330.65 786.583 1333.05 782.45C1335.45 778.317 1338.72 775.05 1342.85 772.65C1346.99 770.117 1351.59 768.85 1356.65 768.85C1361.72 768.85 1366.32 770.117 1370.45 772.65C1374.59 775.05 1377.85 778.317 1380.25 782.45C1382.79 786.583 1384.05 791.183 1384.05 796.25C1384.05 801.183 1382.79 805.717 1380.25 809.85C1377.85 813.983 1374.59 817.25 1370.45 819.65C1366.32 822.05 1361.72 823.25 1356.65 823.25ZM1405.6 866.45V846.45H1428.2V746.45H1405.6V726.45H1472.4V746.45H1449.8V846.45H1472.4V866.45H1405.6ZM1501.1 866.45V761.45H1521.7V783.05L1518.1 785.45C1519.44 780.783 1522.04 776.517 1525.9 772.65C1529.77 768.65 1534.37 765.45 1539.7 763.05C1545.04 760.517 1550.5 759.25 1556.1 759.25C1564.1 759.25 1570.77 760.85 1576.1 764.05C1581.44 767.117 1585.44 771.85 1588.1 778.25C1590.77 784.65 1592.1 792.717 1592.1 802.45V866.45H1571.5V803.85C1571.5 797.85 1570.7 792.917 1569.1 789.05C1567.5 785.05 1565.04 782.183 1561.7 780.45C1558.37 778.583 1554.24 777.783 1549.3 778.05C1545.3 778.05 1541.64 778.717 1538.3 780.05C1534.97 781.25 1532.04 782.983 1529.5 785.25C1527.1 787.517 1525.17 790.183 1523.7 793.25C1522.37 796.183 1521.7 799.383 1521.7 802.85V866.45H1511.5C1509.77 866.45 1508.04 866.45 1506.3 866.45C1504.57 866.45 1502.84 866.45 1501.1 866.45ZM1631.45 866.45V749.65C1631.45 743.65 1632.78 738.317 1635.45 733.65C1638.12 728.983 1641.78 725.317 1646.45 722.65C1651.12 719.983 1656.52 718.65 1662.65 718.65C1666.92 718.65 1670.92 719.45 1674.65 721.05C1678.38 722.65 1681.38 724.783 1683.65 727.45L1676.65 743.25C1674.92 741.65 1672.98 740.383 1670.85 739.45C1668.85 738.383 1666.92 737.85 1665.05 737.85C1662.25 737.85 1659.85 738.317 1657.85 739.25C1655.98 740.05 1654.58 741.383 1653.65 743.25C1652.72 744.983 1652.25 747.117 1652.25 749.65V866.45H1641.85C1640.12 866.45 1638.38 866.45 1636.65 866.45C1634.92 866.45 1633.18 866.45 1631.45 866.45ZM1614.65 782.25V763.25H1677.05V782.25H1614.65ZM1741.86 868.45C1731.59 868.45 1722.39 866.117 1714.26 861.45C1706.26 856.65 1699.92 850.183 1695.26 842.05C1690.59 833.783 1688.26 824.383 1688.26 813.85C1688.26 803.317 1690.59 793.983 1695.26 785.85C1699.92 777.583 1706.26 771.117 1714.26 766.45C1722.39 761.65 1731.59 759.25 1741.86 759.25C1751.99 759.25 1761.06 761.65 1769.06 766.45C1777.19 771.117 1783.59 777.583 1788.26 785.85C1792.92 793.983 1795.26 803.317 1795.26 813.85C1795.26 824.383 1792.92 833.783 1788.26 842.05C1783.59 850.183 1777.19 856.65 1769.06 861.45C1761.06 866.117 1751.99 868.45 1741.86 868.45ZM1741.86 849.65C1748.12 849.65 1753.72 848.117 1758.66 845.05C1763.59 841.85 1767.46 837.583 1770.26 832.25C1773.06 826.783 1774.39 820.65 1774.26 813.85C1774.39 806.917 1773.06 800.783 1770.26 795.45C1767.46 789.983 1763.59 785.717 1758.66 782.65C1753.72 779.583 1748.12 778.05 1741.86 778.05C1735.59 778.05 1729.92 779.65 1724.86 782.85C1719.92 785.917 1716.06 790.183 1713.26 795.65C1710.46 800.983 1709.12 807.05 1709.26 813.85C1709.12 820.65 1710.46 826.783 1713.26 832.25C1716.06 837.583 1719.92 841.85 1724.86 845.05C1729.92 848.117 1735.59 849.65 1741.86 849.65ZM1817.7 866.45V761.45H1838.5V794.45L1836.5 786.45C1837.97 781.383 1840.44 776.783 1843.9 772.65C1847.5 768.517 1851.57 765.25 1856.1 762.85C1860.77 760.45 1865.57 759.25 1870.5 759.25C1872.77 759.25 1874.9 759.45 1876.9 759.85C1879.04 760.25 1880.7 760.717 1881.9 761.25L1876.5 783.65C1874.9 782.983 1873.1 782.45 1871.1 782.05C1869.24 781.517 1867.37 781.25 1865.5 781.25C1861.9 781.25 1858.44 781.983 1855.1 783.45C1851.9 784.783 1849.04 786.717 1846.5 789.25C1844.1 791.65 1842.17 794.517 1840.7 797.85C1839.24 801.05 1838.5 804.583 1838.5 808.45V866.45H1817.7ZM1897.97 866.45V761.45H1918.77V783.85L1914.97 786.25C1916.04 782.783 1917.7 779.45 1919.97 776.25C1922.37 773.05 1925.24 770.25 1928.57 767.85C1932.04 765.317 1935.7 763.317 1939.57 761.85C1943.57 760.383 1947.64 759.65 1951.77 759.65C1957.77 759.65 1963.04 760.65 1967.57 762.65C1972.1 764.65 1975.84 767.65 1978.77 771.65C1981.7 775.65 1983.84 780.65 1985.17 786.65L1981.97 785.85L1983.37 782.45C1984.84 779.383 1986.84 776.517 1989.37 773.85C1992.04 771.05 1995.04 768.583 1998.37 766.45C2001.7 764.317 2005.24 762.65 2008.97 761.45C2012.7 760.25 2016.37 759.65 2019.97 759.65C2027.84 759.65 2034.3 761.25 2039.37 764.45C2044.57 767.65 2048.44 772.517 2050.97 779.05C2053.64 785.583 2054.97 793.717 2054.97 803.45V866.45H2034.17V804.65C2034.17 795.717 2032.44 789.183 2028.97 785.05C2025.64 780.783 2020.37 778.65 2013.17 778.65C2009.44 778.65 2005.9 779.317 2002.57 780.65C1999.37 781.85 1996.57 783.583 1994.17 785.85C1991.77 788.117 1989.9 790.783 1988.57 793.85C1987.24 796.783 1986.57 800.05 1986.57 803.65V866.45H1965.77V804.25C1965.77 795.983 1963.97 789.65 1960.37 785.25C1956.9 780.85 1951.84 778.65 1945.17 778.65C1941.44 778.65 1937.97 779.317 1934.77 780.65C1931.57 781.85 1928.77 783.583 1926.37 785.85C1923.97 787.983 1922.1 790.583 1920.77 793.65C1919.44 796.583 1918.77 799.783 1918.77 803.25V866.45H1897.97ZM2144.75 866.45V798.05C2144.75 792.183 2142.62 787.45 2138.35 783.85C2134.22 780.117 2128.95 778.25 2122.55 778.25C2116.68 778.25 2111.35 779.45 2106.55 781.85C2101.88 784.25 2097.62 787.917 2093.75 792.85L2080.35 779.45C2086.62 772.65 2093.35 767.583 2100.55 764.25C2107.88 760.917 2115.75 759.25 2124.15 759.25C2132.15 759.25 2139.08 760.583 2144.95 763.25C2150.82 765.917 2155.35 769.85 2158.55 775.05C2161.75 780.117 2163.35 786.317 2163.35 793.65V866.45H2144.75ZM2113.35 868.45C2106.55 868.45 2100.48 867.117 2095.15 864.45C2089.82 861.783 2085.55 858.117 2082.35 853.45C2079.28 848.65 2077.75 843.05 2077.75 836.65C2077.75 831.05 2078.75 826.117 2080.75 821.85C2082.75 817.583 2085.68 814.05 2089.55 811.25C2093.55 808.45 2098.48 806.317 2104.35 804.85C2110.35 803.383 2117.22 802.65 2124.95 802.65H2154.15L2152.35 819.05H2122.35C2118.35 819.05 2114.75 819.45 2111.55 820.25C2108.48 820.917 2105.82 822.05 2103.55 823.65C2101.42 825.117 2099.82 826.917 2098.75 829.05C2097.68 831.05 2097.15 833.45 2097.15 836.25C2097.15 839.183 2097.88 841.783 2099.35 844.05C2100.82 846.183 2102.82 847.85 2105.35 849.05C2107.88 850.25 2110.82 850.85 2114.15 850.85C2118.95 850.85 2123.48 850.05 2127.75 848.45C2132.15 846.717 2136.02 844.383 2139.35 841.45C2142.82 838.517 2145.48 835.25 2147.35 831.65L2152.15 845.05C2149.35 849.717 2145.88 853.783 2141.75 857.25C2137.62 860.717 2133.15 863.45 2128.35 865.45C2123.55 867.45 2118.55 868.45 2113.35 868.45ZM2202.38 866.45V734.65H2222.98V866.45H2202.38ZM2180.58 781.45V761.45H2247.38V781.45H2180.58ZM2269.54 866.45V761.45H2290.14V866.45H2269.54ZM2279.54 738.25C2275.14 738.25 2271.74 737.117 2269.34 734.85C2266.94 732.583 2265.74 729.383 2265.74 725.25C2265.74 721.383 2266.94 718.25 2269.34 715.85C2271.88 713.45 2275.28 712.25 2279.54 712.25C2283.94 712.25 2287.34 713.383 2289.74 715.65C2292.14 717.917 2293.34 721.117 2293.34 725.25C2293.34 729.117 2292.08 732.25 2289.54 734.65C2287.14 737.05 2283.81 738.25 2279.54 738.25ZM2369.01 868.45C2358.74 868.45 2349.54 866.117 2341.41 861.45C2333.41 856.65 2327.07 850.183 2322.41 842.05C2317.74 833.783 2315.41 824.383 2315.41 813.85C2315.41 803.317 2317.74 793.983 2322.41 785.85C2327.07 777.583 2333.41 771.117 2341.41 766.45C2349.54 761.65 2358.74 759.25 2369.01 759.25C2379.14 759.25 2388.21 761.65 2396.21 766.45C2404.34 771.117 2410.74 777.583 2415.41 785.85C2420.07 793.983 2422.41 803.317 2422.41 813.85C2422.41 824.383 2420.07 833.783 2415.41 842.05C2410.74 850.183 2404.34 856.65 2396.21 861.45C2388.21 866.117 2379.14 868.45 2369.01 868.45ZM2369.01 849.65C2375.27 849.65 2380.87 848.117 2385.81 845.05C2390.74 841.85 2394.61 837.583 2397.41 832.25C2400.21 826.783 2401.54 820.65 2401.41 813.85C2401.54 806.917 2400.21 800.783 2397.41 795.45C2394.61 789.983 2390.74 785.717 2385.81 782.65C2380.87 779.583 2375.27 778.05 2369.01 778.05C2362.74 778.05 2357.07 779.65 2352.01 782.85C2347.07 785.917 2343.21 790.183 2340.41 795.65C2337.61 800.983 2336.27 807.05 2336.41 813.85C2336.27 820.65 2337.61 826.783 2340.41 832.25C2343.21 837.583 2347.07 841.85 2352.01 845.05C2357.07 848.117 2362.74 849.65 2369.01 849.65ZM2444.85 866.45V761.45H2465.45V783.05L2461.85 785.45C2463.19 780.783 2465.79 776.517 2469.65 772.65C2473.52 768.65 2478.12 765.45 2483.45 763.05C2488.79 760.517 2494.25 759.25 2499.85 759.25C2507.85 759.25 2514.52 760.85 2519.85 764.05C2525.19 767.117 2529.19 771.85 2531.85 778.25C2534.52 784.65 2535.85 792.717 2535.85 802.45V866.45H2515.25V803.85C2515.25 797.85 2514.45 792.917 2512.85 789.05C2511.25 785.05 2508.79 782.183 2505.45 780.45C2502.12 778.583 2497.99 777.783 2493.05 778.05C2489.05 778.05 2485.39 778.717 2482.05 780.05C2478.72 781.25 2475.79 782.983 2473.25 785.25C2470.85 787.517 2468.92 790.183 2467.45 793.25C2466.12 796.183 2465.45 799.383 2465.45 802.85V866.45H2455.25C2453.52 866.45 2451.79 866.45 2450.05 866.45C2448.32 866.45 2446.59 866.45 2444.85 866.45ZM2720.45 866.45L2702.25 847.05L2699.05 843.45L2664.45 804.85C2661.12 801.117 2657.92 797.317 2654.85 793.45C2651.79 789.45 2649.05 785.517 2646.65 781.65C2644.39 777.783 2642.52 774.05 2641.05 770.45C2639.72 766.717 2639.05 763.25 2639.05 760.05C2639.05 753.25 2640.79 747.183 2644.25 741.85C2647.85 736.383 2652.72 732.117 2658.85 729.05C2665.12 725.983 2672.32 724.45 2680.45 724.45C2686.45 724.45 2692.05 725.583 2697.25 727.85C2702.45 729.983 2706.92 733.05 2710.65 737.05C2714.52 740.917 2717.32 745.45 2719.05 750.65L2703.45 760.65C2700.92 754.517 2697.79 750.05 2694.05 747.25C2690.45 744.45 2685.92 743.05 2680.45 743.05C2676.32 743.05 2672.85 743.717 2670.05 745.05C2667.25 746.25 2665.12 748.05 2663.65 750.45C2662.19 752.85 2661.45 755.85 2661.45 759.45C2661.45 762.383 2662.25 765.65 2663.85 769.25C2665.59 772.717 2667.72 776.25 2670.25 779.85C2672.79 783.45 2675.39 786.783 2678.05 789.85C2680.72 792.917 2683.05 795.583 2685.05 797.85L2712.85 828.85L2718.65 835.25L2747.25 866.45H2720.45ZM2666.65 868.45C2657.19 868.45 2648.59 866.45 2640.85 862.45C2633.12 858.317 2626.92 852.917 2622.25 846.25C2617.72 839.45 2615.45 832.05 2615.45 824.05C2615.45 813.517 2618.32 804.383 2624.05 796.65C2629.92 788.917 2638.45 782.983 2649.65 778.85L2662.45 794.25C2653.92 796.117 2647.59 799.25 2643.45 803.65C2639.32 807.917 2637.25 813.717 2637.25 821.05C2637.25 826.65 2638.59 831.583 2641.25 835.85C2643.92 840.117 2647.72 843.45 2652.65 845.85C2657.72 848.25 2663.72 849.45 2670.65 849.45C2676.65 849.45 2682.12 848.317 2687.05 846.05C2692.12 843.65 2696.65 840.317 2700.65 836.05C2704.65 831.783 2707.92 826.65 2710.45 820.65C2713.12 814.65 2715.05 807.983 2716.25 800.65H2734.65C2733.59 808.783 2731.65 816.317 2728.85 823.25C2726.19 830.183 2722.79 836.45 2718.65 842.05C2714.65 847.65 2709.99 852.45 2704.65 856.45C2699.45 860.317 2693.65 863.317 2687.25 865.45C2680.85 867.45 2673.99 868.45 2666.65 868.45ZM2885.76 868.45C2876.03 868.45 2867.09 866.717 2858.96 863.25C2850.83 859.783 2843.76 854.85 2837.76 848.45C2831.76 841.917 2827.09 834.25 2823.76 825.45C2820.56 816.65 2818.96 806.983 2818.96 796.45C2818.96 786.45 2820.69 777.183 2824.16 768.65C2827.76 759.983 2832.69 752.383 2838.96 745.85C2845.23 739.317 2852.49 734.25 2860.76 730.65C2869.03 727.05 2877.96 725.25 2887.56 725.25C2894.36 725.25 2900.96 726.317 2907.36 728.45C2913.89 730.45 2919.76 733.317 2924.96 737.05C2930.29 740.65 2934.63 744.783 2937.96 749.45L2923.56 764.45C2917.83 758.583 2911.96 754.183 2905.96 751.25C2899.96 748.317 2893.83 746.85 2887.56 746.85C2881.03 746.85 2874.89 748.117 2869.16 750.65C2863.56 753.05 2858.63 756.45 2854.36 760.85C2850.23 765.25 2846.96 770.517 2844.56 776.65C2842.16 782.65 2840.96 789.25 2840.96 796.45C2840.96 804.05 2842.09 810.983 2844.36 817.25C2846.76 823.383 2850.09 828.65 2854.36 833.05C2858.63 837.45 2863.69 840.85 2869.56 843.25C2875.56 845.517 2882.16 846.65 2889.36 846.65C2893.76 846.65 2898.09 846.05 2902.36 844.85C2906.63 843.65 2910.63 841.917 2914.36 839.65C2918.09 837.383 2921.49 834.717 2924.56 831.65L2935.36 849.25C2932.29 852.85 2928.09 856.117 2922.76 859.05C2917.56 861.983 2911.69 864.317 2905.16 866.05C2898.76 867.65 2892.29 868.45 2885.76 868.45ZM3006.7 868.45C2996.43 868.45 2987.23 866.117 2979.1 861.45C2971.1 856.65 2964.77 850.183 2960.1 842.05C2955.43 833.783 2953.1 824.383 2953.1 813.85C2953.1 803.317 2955.43 793.983 2960.1 785.85C2964.77 777.583 2971.1 771.117 2979.1 766.45C2987.23 761.65 2996.43 759.25 3006.7 759.25C3016.83 759.25 3025.9 761.65 3033.9 766.45C3042.03 771.117 3048.43 777.583 3053.1 785.85C3057.77 793.983 3060.1 803.317 3060.1 813.85C3060.1 824.383 3057.77 833.783 3053.1 842.05C3048.43 850.183 3042.03 856.65 3033.9 861.45C3025.9 866.117 3016.83 868.45 3006.7 868.45ZM3006.7 849.65C3012.97 849.65 3018.57 848.117 3023.5 845.05C3028.43 841.85 3032.3 837.583 3035.1 832.25C3037.9 826.783 3039.23 820.65 3039.1 813.85C3039.23 806.917 3037.9 800.783 3035.1 795.45C3032.3 789.983 3028.43 785.717 3023.5 782.65C3018.57 779.583 3012.97 778.05 3006.7 778.05C3000.43 778.05 2994.77 779.65 2989.7 782.85C2984.77 785.917 2980.9 790.183 2978.1 795.65C2975.3 800.983 2973.97 807.05 2974.1 813.85C2973.97 820.65 2975.3 826.783 2978.1 832.25C2980.9 837.583 2984.77 841.85 2989.7 845.05C2994.77 848.117 3000.43 849.65 3006.7 849.65ZM3082.15 866.45V761.45H3102.95V783.85L3099.15 786.25C3100.22 782.783 3101.88 779.45 3104.15 776.25C3106.55 773.05 3109.42 770.25 3112.75 767.85C3116.22 765.317 3119.88 763.317 3123.75 761.85C3127.75 760.383 3131.82 759.65 3135.95 759.65C3141.95 759.65 3147.22 760.65 3151.75 762.65C3156.28 764.65 3160.02 767.65 3162.95 771.65C3165.88 775.65 3168.02 780.65 3169.35 786.65L3166.15 785.85L3167.55 782.45C3169.02 779.383 3171.02 776.517 3173.55 773.85C3176.22 771.05 3179.22 768.583 3182.55 766.45C3185.88 764.317 3189.42 762.65 3193.15 761.45C3196.88 760.25 3200.55 759.65 3204.15 759.65C3212.02 759.65 3218.48 761.25 3223.55 764.45C3228.75 767.65 3232.62 772.517 3235.15 779.05C3237.82 785.583 3239.15 793.717 3239.15 803.45V866.45H3218.35V804.65C3218.35 795.717 3216.62 789.183 3213.15 785.05C3209.82 780.783 3204.55 778.65 3197.35 778.65C3193.62 778.65 3190.08 779.317 3186.75 780.65C3183.55 781.85 3180.75 783.583 3178.35 785.85C3175.95 788.117 3174.08 790.783 3172.75 793.85C3171.42 796.783 3170.75 800.05 3170.75 803.65V866.45H3149.95V804.25C3149.95 795.983 3148.15 789.65 3144.55 785.25C3141.08 780.85 3136.02 778.65 3129.35 778.65C3125.62 778.65 3122.15 779.317 3118.95 780.65C3115.75 781.85 3112.95 783.583 3110.55 785.85C3108.15 787.983 3106.28 790.583 3104.95 793.65C3103.62 796.583 3102.95 799.783 3102.95 803.25V866.45H3082.15ZM3266.33 866.45V761.45H3287.13V783.85L3283.33 786.25C3284.39 782.783 3286.06 779.45 3288.33 776.25C3290.73 773.05 3293.59 770.25 3296.93 767.85C3300.39 765.317 3304.06 763.317 3307.93 761.85C3311.93 760.383 3315.99 759.65 3320.13 759.65C3326.13 759.65 3331.39 760.65 3335.93 762.65C3340.46 764.65 3344.19 767.65 3347.13 771.65C3350.06 775.65 3352.19 780.65 3353.53 786.65L3350.33 785.85L3351.73 782.45C3353.19 779.383 3355.19 776.517 3357.73 773.85C3360.39 771.05 3363.39 768.583 3366.73 766.45C3370.06 764.317 3373.59 762.65 3377.33 761.45C3381.06 760.25 3384.73 759.65 3388.33 759.65C3396.19 759.65 3402.66 761.25 3407.73 764.45C3412.93 767.65 3416.79 772.517 3419.33 779.05C3421.99 785.583 3423.33 793.717 3423.33 803.45V866.45H3402.53V804.65C3402.53 795.717 3400.79 789.183 3397.33 785.05C3393.99 780.783 3388.73 778.65 3381.53 778.65C3377.79 778.65 3374.26 779.317 3370.93 780.65C3367.73 781.85 3364.93 783.583 3362.53 785.85C3360.13 788.117 3358.26 790.783 3356.93 793.85C3355.59 796.783 3354.93 800.05 3354.93 803.65V866.45H3334.13V804.25C3334.13 795.983 3332.33 789.65 3328.73 785.25C3325.26 780.85 3320.19 778.65 3313.53 778.65C3309.79 778.65 3306.33 779.317 3303.13 780.65C3299.93 781.85 3297.13 783.583 3294.73 785.85C3292.33 787.983 3290.46 790.583 3289.13 793.65C3287.79 796.583 3287.13 799.783 3287.13 803.25V866.45H3266.33ZM3487.71 868.45C3480.24 868.45 3473.71 866.717 3468.11 863.25C3462.64 859.783 3458.37 854.917 3455.31 848.65C3452.37 842.383 3450.91 834.917 3450.91 826.25V761.45H3471.51V820.65C3471.51 829.85 3473.64 837.117 3477.91 842.45C3482.31 847.783 3488.37 850.45 3496.11 850.45C3499.97 850.45 3503.51 849.85 3506.71 848.65C3509.91 847.317 3512.64 845.517 3514.91 843.25C3517.31 840.983 3519.17 838.25 3520.51 835.05C3521.84 831.85 3522.51 828.383 3522.51 824.65V761.45H3543.11V866.45H3522.51V844.45L3526.11 842.05C3524.51 846.983 3521.77 851.45 3517.91 855.45C3514.17 859.45 3509.71 862.65 3504.51 865.05C3499.31 867.317 3493.71 868.45 3487.71 868.45ZM3572 866.45V761.45H3592.6V783.05L3589 785.45C3590.33 780.783 3592.93 776.517 3596.8 772.65C3600.67 768.65 3605.27 765.45 3610.6 763.05C3615.93 760.517 3621.4 759.25 3627 759.25C3635 759.25 3641.67 760.85 3647 764.05C3652.33 767.117 3656.33 771.85 3659 778.25C3661.67 784.65 3663 792.717 3663 802.45V866.45H3642.4V803.85C3642.4 797.85 3641.6 792.917 3640 789.05C3638.4 785.05 3635.93 782.183 3632.6 780.45C3629.27 778.583 3625.13 777.783 3620.2 778.05C3616.2 778.05 3612.53 778.717 3609.2 780.05C3605.87 781.25 3602.93 782.983 3600.4 785.25C3598 787.517 3596.07 790.183 3594.6 793.25C3593.27 796.183 3592.6 799.383 3592.6 802.85V866.45H3582.4C3580.67 866.45 3578.93 866.45 3577.2 866.45C3575.47 866.45 3573.73 866.45 3572 866.45ZM3694.35 866.45V761.45H3714.95V866.45H3694.35ZM3704.35 738.25C3699.95 738.25 3696.55 737.117 3694.15 734.85C3691.75 732.583 3690.55 729.383 3690.55 725.25C3690.55 721.383 3691.75 718.25 3694.15 715.85C3696.68 713.45 3700.08 712.25 3704.35 712.25C3708.75 712.25 3712.15 713.383 3714.55 715.65C3716.95 717.917 3718.15 721.117 3718.15 725.25C3718.15 729.117 3716.88 732.25 3714.35 734.65C3711.95 737.05 3708.61 738.25 3704.35 738.25ZM3791.21 868.45C3781.48 868.45 3772.74 866.05 3765.01 861.25C3757.41 856.45 3751.34 849.917 3746.81 841.65C3742.41 833.383 3740.21 824.117 3740.21 813.85C3740.21 803.583 3742.41 794.317 3746.81 786.05C3751.34 777.783 3757.41 771.25 3765.01 766.45C3772.74 761.65 3781.48 759.25 3791.21 759.25C3800.54 759.25 3809.01 761.183 3816.61 765.05C3824.34 768.783 3830.21 773.917 3834.21 780.45L3822.81 794.45C3820.68 791.383 3817.94 788.583 3814.61 786.05C3811.28 783.517 3807.74 781.517 3804.01 780.05C3800.28 778.583 3796.68 777.85 3793.21 777.85C3786.81 777.85 3781.08 779.45 3776.01 782.65C3771.08 785.717 3767.14 789.983 3764.21 795.45C3761.28 800.917 3759.81 807.05 3759.81 813.85C3759.81 820.65 3761.34 826.783 3764.41 832.25C3767.48 837.583 3771.54 841.85 3776.61 845.05C3781.68 848.25 3787.28 849.85 3793.41 849.85C3797.01 849.85 3800.48 849.25 3803.81 848.05C3807.28 846.85 3810.61 845.05 3813.81 842.65C3817.01 840.25 3820.01 837.317 3822.81 833.85L3834.21 847.85C3829.94 853.85 3823.81 858.783 3815.81 862.65C3807.94 866.517 3799.74 868.45 3791.21 868.45ZM3915.84 866.45V798.05C3915.84 792.183 3913.71 787.45 3909.44 783.85C3905.31 780.117 3900.04 778.25 3893.64 778.25C3887.78 778.25 3882.44 779.45 3877.64 781.85C3872.98 784.25 3868.71 787.917 3864.84 792.85L3851.44 779.45C3857.71 772.65 3864.44 767.583 3871.64 764.25C3878.98 760.917 3886.84 759.25 3895.24 759.25C3903.24 759.25 3910.18 760.583 3916.04 763.25C3921.91 765.917 3926.44 769.85 3929.64 775.05C3932.84 780.117 3934.44 786.317 3934.44 793.65V866.45H3915.84ZM3884.44 868.45C3877.64 868.45 3871.58 867.117 3866.24 864.45C3860.91 861.783 3856.64 858.117 3853.44 853.45C3850.38 848.65 3848.84 843.05 3848.84 836.65C3848.84 831.05 3849.84 826.117 3851.84 821.85C3853.84 817.583 3856.78 814.05 3860.64 811.25C3864.64 808.45 3869.58 806.317 3875.44 804.85C3881.44 803.383 3888.31 802.65 3896.04 802.65H3925.24L3923.44 819.05H3893.44C3889.44 819.05 3885.84 819.45 3882.64 820.25C3879.58 820.917 3876.91 822.05 3874.64 823.65C3872.51 825.117 3870.91 826.917 3869.84 829.05C3868.78 831.05 3868.24 833.45 3868.24 836.25C3868.24 839.183 3868.98 841.783 3870.44 844.05C3871.91 846.183 3873.91 847.85 3876.44 849.05C3878.98 850.25 3881.91 850.85 3885.24 850.85C3890.04 850.85 3894.58 850.05 3898.84 848.45C3903.24 846.717 3907.11 844.383 3910.44 841.45C3913.91 838.517 3916.58 835.25 3918.44 831.65L3923.24 845.05C3920.44 849.717 3916.98 853.783 3912.84 857.25C3908.71 860.717 3904.24 863.45 3899.44 865.45C3894.64 867.45 3889.64 868.45 3884.44 868.45ZM3973.48 866.45V734.65H3994.08V866.45H3973.48ZM3951.68 781.45V761.45H4018.48V781.45H3951.68ZM4040.64 866.45V761.45H4061.24V866.45H4040.64ZM4050.64 738.25C4046.24 738.25 4042.84 737.117 4040.44 734.85C4038.04 732.583 4036.84 729.383 4036.84 725.25C4036.84 721.383 4038.04 718.25 4040.44 715.85C4042.97 713.45 4046.37 712.25 4050.64 712.25C4055.04 712.25 4058.44 713.383 4060.84 715.65C4063.24 717.917 4064.44 721.117 4064.44 725.25C4064.44 729.117 4063.17 732.25 4060.64 734.65C4058.24 737.05 4054.9 738.25 4050.64 738.25ZM4140.1 868.45C4129.83 868.45 4120.63 866.117 4112.5 861.45C4104.5 856.65 4098.17 850.183 4093.5 842.05C4088.83 833.783 4086.5 824.383 4086.5 813.85C4086.5 803.317 4088.83 793.983 4093.5 785.85C4098.17 777.583 4104.5 771.117 4112.5 766.45C4120.63 761.65 4129.83 759.25 4140.1 759.25C4150.23 759.25 4159.3 761.65 4167.3 766.45C4175.43 771.117 4181.83 777.583 4186.5 785.85C4191.17 793.983 4193.5 803.317 4193.5 813.85C4193.5 824.383 4191.17 833.783 4186.5 842.05C4181.83 850.183 4175.43 856.65 4167.3 861.45C4159.3 866.117 4150.23 868.45 4140.1 868.45ZM4140.1 849.65C4146.37 849.65 4151.97 848.117 4156.9 845.05C4161.83 841.85 4165.7 837.583 4168.5 832.25C4171.3 826.783 4172.63 820.65 4172.5 813.85C4172.63 806.917 4171.3 800.783 4168.5 795.45C4165.7 789.983 4161.83 785.717 4156.9 782.65C4151.97 779.583 4146.37 778.05 4140.1 778.05C4133.83 778.05 4128.17 779.65 4123.1 782.85C4118.17 785.917 4114.3 790.183 4111.5 795.65C4108.7 800.983 4107.37 807.05 4107.5 813.85C4107.37 820.65 4108.7 826.783 4111.5 832.25C4114.3 837.583 4118.17 841.85 4123.1 845.05C4128.17 848.117 4133.83 849.65 4140.1 849.65ZM4215.95 866.45V761.45H4236.55V783.05L4232.95 785.45C4234.28 780.783 4236.88 776.517 4240.75 772.65C4244.61 768.65 4249.21 765.45 4254.55 763.05C4259.88 760.517 4265.35 759.25 4270.95 759.25C4278.95 759.25 4285.61 760.85 4290.95 764.05C4296.28 767.117 4300.28 771.85 4302.95 778.25C4305.61 784.65 4306.95 792.717 4306.95 802.45V866.45H4286.35V803.85C4286.35 797.85 4285.55 792.917 4283.95 789.05C4282.35 785.05 4279.88 782.183 4276.55 780.45C4273.21 778.583 4269.08 777.783 4264.15 778.05C4260.15 778.05 4256.48 778.717 4253.15 780.05C4249.81 781.25 4246.88 782.983 4244.35 785.25C4241.95 787.517 4240.01 790.183 4238.55 793.25C4237.21 796.183 4236.55 799.383 4236.55 802.85V866.45H4226.35C4224.61 866.45 4222.88 866.45 4221.15 866.45C4219.41 866.45 4217.68 866.45 4215.95 866.45ZM4369.89 868.45C4361.09 868.45 4353.16 866.917 4346.09 863.85C4339.03 860.783 4333.16 856.25 4328.49 850.25L4342.49 838.25C4346.49 842.917 4350.83 846.317 4355.49 848.45C4360.29 850.45 4365.69 851.45 4371.69 851.45C4374.09 851.45 4376.29 851.183 4378.29 850.65C4380.43 849.983 4382.23 849.05 4383.69 847.85C4385.29 846.65 4386.49 845.25 4387.29 843.65C4388.09 841.917 4388.49 840.05 4388.49 838.05C4388.49 834.583 4387.23 831.783 4384.69 829.65C4383.36 828.717 4381.23 827.717 4378.29 826.65C4375.49 825.45 4371.83 824.25 4367.29 823.05C4359.56 821.05 4353.23 818.783 4348.29 816.25C4343.36 813.717 4339.56 810.85 4336.89 807.65C4334.89 805.117 4333.43 802.383 4332.49 799.45C4331.56 796.383 4331.09 793.05 4331.09 789.45C4331.09 783.583 4332.76 778.383 4336.09 773.85C4339.43 769.317 4343.89 765.783 4349.49 763.25C4355.23 760.583 4361.63 759.25 4368.69 759.25C4373.63 759.25 4378.49 759.917 4383.29 761.25C4388.23 762.583 4392.76 764.517 4396.89 767.05C4401.03 769.583 4404.49 772.583 4407.29 776.05L4395.49 789.05C4392.96 786.517 4390.16 784.317 4387.09 782.45C4384.16 780.45 4381.16 778.917 4378.09 777.85C4375.03 776.783 4372.23 776.25 4369.69 776.25C4366.89 776.25 4364.36 776.517 4362.09 777.05C4359.83 777.583 4357.89 778.383 4356.29 779.45C4354.83 780.517 4353.69 781.85 4352.89 783.45C4352.09 785.05 4351.69 786.85 4351.69 788.85C4351.83 790.583 4352.23 792.25 4352.89 793.85C4353.69 795.317 4354.76 796.583 4356.09 797.65C4357.56 798.717 4359.76 799.85 4362.69 801.05C4365.63 802.25 4369.36 803.383 4373.89 804.45C4380.56 806.183 4386.03 808.117 4390.29 810.25C4394.69 812.25 4398.16 814.583 4400.69 817.25C4403.36 819.783 4405.23 822.717 4406.29 826.05C4407.36 829.383 4407.89 833.117 4407.89 837.25C4407.89 843.25 4406.16 848.65 4402.69 853.45C4399.36 858.117 4394.83 861.783 4389.09 864.45C4383.36 867.117 4376.96 868.45 4369.89 868.45ZM4518.45 866.45V747.25H4479.25V726.45H4580.45V747.25H4540.05V866.45H4518.45ZM4630.96 868.45C4620.16 868.45 4610.56 866.183 4602.16 861.65C4593.9 856.983 4587.36 850.65 4582.56 842.65C4577.9 834.65 4575.56 825.45 4575.56 815.05C4575.56 806.783 4576.9 799.25 4579.56 792.45C4582.23 785.65 4585.9 779.783 4590.56 774.85C4595.36 769.783 4601.03 765.917 4607.56 763.25C4614.23 760.45 4621.43 759.05 4629.16 759.05C4635.96 759.05 4642.3 760.383 4648.16 763.05C4654.03 765.583 4659.1 769.117 4663.36 773.65C4667.76 778.183 4671.1 783.583 4673.36 789.85C4675.76 795.983 4676.9 802.717 4676.76 810.05L4676.56 818.85H4590.76L4586.16 802.45H4658.76L4655.76 805.85V801.05C4655.36 796.65 4653.9 792.717 4651.36 789.25C4648.83 785.783 4645.63 783.05 4641.76 781.05C4637.9 779.05 4633.7 778.05 4629.16 778.05C4621.96 778.05 4615.9 779.45 4610.96 782.25C4606.03 784.917 4602.3 788.917 4599.76 794.25C4597.23 799.45 4595.96 805.917 4595.96 813.65C4595.96 820.983 4597.5 827.383 4600.56 832.85C4603.63 838.183 4607.96 842.317 4613.56 845.25C4619.16 848.183 4625.63 849.65 4632.96 849.65C4638.16 849.65 4642.96 848.783 4647.36 847.05C4651.9 845.317 4656.76 842.183 4661.96 837.65L4672.36 852.25C4669.16 855.45 4665.23 858.25 4660.56 860.65C4656.03 863.05 4651.16 864.983 4645.96 866.45C4640.9 867.783 4635.9 868.45 4630.96 868.45ZM4743.75 868.45C4734.02 868.45 4725.28 866.05 4717.55 861.25C4709.95 856.45 4703.88 849.917 4699.35 841.65C4694.95 833.383 4692.75 824.117 4692.75 813.85C4692.75 803.583 4694.95 794.317 4699.35 786.05C4703.88 777.783 4709.95 771.25 4717.55 766.45C4725.28 761.65 4734.02 759.25 4743.75 759.25C4753.08 759.25 4761.55 761.183 4769.15 765.05C4776.88 768.783 4782.75 773.917 4786.75 780.45L4775.35 794.45C4773.22 791.383 4770.48 788.583 4767.15 786.05C4763.82 783.517 4760.28 781.517 4756.55 780.05C4752.82 778.583 4749.22 777.85 4745.75 777.85C4739.35 777.85 4733.62 779.45 4728.55 782.65C4723.62 785.717 4719.68 789.983 4716.75 795.45C4713.82 800.917 4712.35 807.05 4712.35 813.85C4712.35 820.65 4713.88 826.783 4716.95 832.25C4720.02 837.583 4724.08 841.85 4729.15 845.05C4734.22 848.25 4739.82 849.85 4745.95 849.85C4749.55 849.85 4753.02 849.25 4756.35 848.05C4759.82 846.85 4763.15 845.05 4766.35 842.65C4769.55 840.25 4772.55 837.317 4775.35 833.85L4786.75 847.85C4782.48 853.85 4776.35 858.783 4768.35 862.65C4760.48 866.517 4752.28 868.45 4743.75 868.45ZM4806.18 866.45V718.45H4826.78V783.05L4823.18 785.45C4824.51 780.783 4827.11 776.517 4830.98 772.65C4834.85 768.65 4839.45 765.45 4844.78 763.05C4850.11 760.517 4855.58 759.25 4861.18 759.25C4869.18 759.25 4875.85 760.85 4881.18 764.05C4886.51 767.117 4890.51 771.85 4893.18 778.25C4895.85 784.65 4897.18 792.717 4897.18 802.45V866.45H4876.58V803.85C4876.58 797.85 4875.78 792.917 4874.18 789.05C4872.58 785.05 4870.11 782.183 4866.78 780.45C4863.45 778.583 4859.31 777.783 4854.38 778.05C4850.38 778.05 4846.71 778.717 4843.38 780.05C4840.05 781.25 4837.11 782.983 4834.58 785.25C4832.18 787.517 4830.25 790.183 4828.78 793.25C4827.45 796.183 4826.78 799.383 4826.78 802.85V866.45H4816.58C4814.85 866.45 4813.11 866.45 4811.38 866.45C4809.65 866.45 4807.91 866.45 4806.18 866.45ZM4925.13 866.45V761.45H4945.73V783.05L4942.13 785.45C4943.46 780.783 4946.06 776.517 4949.93 772.65C4953.79 768.65 4958.39 765.45 4963.73 763.05C4969.06 760.517 4974.53 759.25 4980.13 759.25C4988.13 759.25 4994.79 760.85 5000.13 764.05C5005.46 767.117 5009.46 771.85 5012.13 778.25C5014.79 784.65 5016.13 792.717 5016.13 802.45V866.45H4995.53V803.85C4995.53 797.85 4994.73 792.917 4993.13 789.05C4991.53 785.05 4989.06 782.183 4985.73 780.45C4982.39 778.583 4978.26 777.783 4973.33 778.05C4969.33 778.05 4965.66 778.717 4962.33 780.05C4958.99 781.25 4956.06 782.983 4953.53 785.25C4951.13 787.517 4949.19 790.183 4947.73 793.25C4946.39 796.183 4945.73 799.383 4945.73 802.85V866.45H4935.53C4933.79 866.45 4932.06 866.45 4930.33 866.45C4928.59 866.45 4926.86 866.45 4925.13 866.45ZM5091.27 868.45C5081.01 868.45 5071.81 866.117 5063.67 861.45C5055.67 856.65 5049.34 850.183 5044.67 842.05C5040.01 833.783 5037.67 824.383 5037.67 813.85C5037.67 803.317 5040.01 793.983 5044.67 785.85C5049.34 777.583 5055.67 771.117 5063.67 766.45C5071.81 761.65 5081.01 759.25 5091.27 759.25C5101.41 759.25 5110.47 761.65 5118.47 766.45C5126.61 771.117 5133.01 777.583 5137.67 785.85C5142.34 793.983 5144.67 803.317 5144.67 813.85C5144.67 824.383 5142.34 833.783 5137.67 842.05C5133.01 850.183 5126.61 856.65 5118.47 861.45C5110.47 866.117 5101.41 868.45 5091.27 868.45ZM5091.27 849.65C5097.54 849.65 5103.14 848.117 5108.07 845.05C5113.01 841.85 5116.87 837.583 5119.67 832.25C5122.47 826.783 5123.81 820.65 5123.67 813.85C5123.81 806.917 5122.47 800.783 5119.67 795.45C5116.87 789.983 5113.01 785.717 5108.07 782.65C5103.14 779.583 5097.54 778.05 5091.27 778.05C5085.01 778.05 5079.34 779.65 5074.27 782.85C5069.34 785.917 5065.47 790.183 5062.67 795.65C5059.87 800.983 5058.54 807.05 5058.67 813.85C5058.54 820.65 5059.87 826.783 5062.67 832.25C5065.47 837.583 5069.34 841.85 5074.27 845.05C5079.34 848.117 5085.01 849.65 5091.27 849.65ZM5167.52 866.45V718.45H5188.12V866.45H5167.52ZM5262.56 868.45C5252.29 868.45 5243.09 866.117 5234.96 861.45C5226.96 856.65 5220.63 850.183 5215.96 842.05C5211.29 833.783 5208.96 824.383 5208.96 813.85C5208.96 803.317 5211.29 793.983 5215.96 785.85C5220.63 777.583 5226.96 771.117 5234.96 766.45C5243.09 761.65 5252.29 759.25 5262.56 759.25C5272.69 759.25 5281.76 761.65 5289.76 766.45C5297.89 771.117 5304.29 777.583 5308.96 785.85C5313.63 793.983 5315.96 803.317 5315.96 813.85C5315.96 824.383 5313.63 833.783 5308.96 842.05C5304.29 850.183 5297.89 856.65 5289.76 861.45C5281.76 866.117 5272.69 868.45 5262.56 868.45ZM5262.56 849.65C5268.83 849.65 5274.43 848.117 5279.36 845.05C5284.29 841.85 5288.16 837.583 5290.96 832.25C5293.76 826.783 5295.09 820.65 5294.96 813.85C5295.09 806.917 5293.76 800.783 5290.96 795.45C5288.16 789.983 5284.29 785.717 5279.36 782.65C5274.43 779.583 5268.83 778.05 5262.56 778.05C5256.29 778.05 5250.63 779.65 5245.56 782.85C5240.63 785.917 5236.76 790.183 5233.96 795.65C5231.16 800.983 5229.83 807.05 5229.96 813.85C5229.83 820.65 5231.16 826.783 5233.96 832.25C5236.76 837.583 5240.63 841.85 5245.56 845.05C5250.63 848.117 5256.29 849.65 5262.56 849.65ZM5385.41 912.45C5377.94 912.45 5370.47 911.25 5363.01 908.85C5355.67 906.583 5349.74 903.583 5345.21 899.85L5352.81 883.85C5356.81 886.917 5361.74 889.383 5367.61 891.25C5373.61 893.117 5379.54 894.05 5385.41 894.05C5392.74 894.05 5398.87 892.85 5403.81 890.45C5408.74 888.05 5412.47 884.517 5415.01 879.85C5417.54 875.183 5418.81 869.383 5418.81 862.45V842.25L5421.01 843.65C5420.34 847.783 5418.14 851.783 5414.41 855.65C5410.81 859.383 5406.27 862.45 5400.81 864.85C5395.34 867.25 5389.74 868.45 5384.01 868.45C5374.01 868.45 5365.07 866.117 5357.21 861.45C5349.47 856.65 5343.34 850.183 5338.81 842.05C5334.27 833.783 5332.01 824.383 5332.01 813.85C5332.01 803.317 5334.21 793.983 5338.61 785.85C5343.14 777.583 5349.27 771.117 5357.01 766.45C5364.87 761.65 5373.67 759.25 5383.41 759.25C5387.41 759.25 5391.27 759.783 5395.01 760.85C5398.74 761.783 5402.21 763.183 5405.41 765.05C5408.61 766.783 5411.47 768.717 5414.01 770.85C5416.54 772.983 5418.61 775.25 5420.21 777.65C5421.81 780.05 5422.81 782.317 5423.21 784.45L5418.81 786.05V761.45H5439.41V860.05C5439.41 868.45 5438.14 875.85 5435.61 882.25C5433.21 888.783 5429.67 894.25 5425.01 898.65C5420.34 903.183 5414.67 906.583 5408.01 908.85C5401.34 911.25 5393.81 912.45 5385.41 912.45ZM5386.21 849.45C5392.74 849.45 5398.54 847.917 5403.61 844.85C5408.67 841.783 5412.61 837.583 5415.41 832.25C5418.21 826.917 5419.61 820.783 5419.61 813.85C5419.61 806.917 5418.14 800.783 5415.21 795.45C5412.41 789.983 5408.47 785.717 5403.41 782.65C5398.47 779.583 5392.74 778.05 5386.21 778.05C5379.81 778.05 5374.07 779.65 5369.01 782.85C5364.07 785.917 5360.14 790.183 5357.21 795.65C5354.41 800.983 5353.01 807.05 5353.01 813.85C5353.01 820.65 5354.41 826.783 5357.21 832.25C5360.14 837.583 5364.07 841.783 5369.01 844.85C5374.07 847.917 5379.81 849.45 5386.21 849.45ZM5485.89 912.45L5507.09 863.45L5507.29 879.85L5454.89 761.45H5478.89L5511.69 838.65C5512.36 839.983 5513.16 842.05 5514.09 844.85C5515.02 847.517 5515.82 850.183 5516.49 852.85L5511.29 854.05C5512.36 851.25 5513.36 848.45 5514.29 845.65C5515.36 842.85 5516.36 840.05 5517.29 837.25L5544.69 761.45H5569.09L5525.89 866.45L5508.09 912.45H5485.89Z" fill="white"/>
</svg>
